<svg version="1.1" id="Layer_1" xmlns="http://www.w3.org/2000/svg" xmlns:xlink="http://www.w3.org/1999/xlink" x="0px" y="0px"
	 width="100%" viewBox="0 0 512 512" enable-background="new 0 0 512 512" xml:space="preserve">
<path fill="#E51D35" opacity="1.000000" stroke="none" 
	d="
M1.000001,279.000000 
	C1.000000,264.645782 1.000000,250.291550 1.384253,235.289703 
	C2.567062,227.691803 3.365619,220.741501 4.225836,213.254517 
	C55.303940,213.254517 105.905479,213.254517 157.474670,213.254517 
	C121.120705,176.927277 85.556885,141.389603 49.551212,105.410400 
	C57.314335,96.270805 64.887550,87.354782 73.275253,77.479866 
	C118.354614,122.550674 162.651093,166.838745 207.098541,211.277771 
	C207.098541,142.699142 207.098541,74.120636 207.098541,5.273973 
	C212.483917,4.490455 217.615479,3.752761 222.744080,2.994992 
	C227.164474,2.341866 231.581497,1.665879 236.000000,0.999999 
	C247.020889,1.000000 258.041779,1.000000 269.641724,1.332283 
	C270.699219,2.101342 271.109894,2.786781 271.666077,2.938393 
	C284.436981,6.419625 294.486145,14.257900 304.068848,23.386726 
	C304.246124,24.527439 304.325897,25.293184 304.335693,26.518913 
	C304.251434,64.641548 304.224152,102.304207 304.233734,139.966858 
	C304.235687,147.626022 304.376160,155.285156 304.387207,163.113464 
	C304.490051,163.164627 304.658356,163.046600 305.172241,162.904327 
	C319.697662,148.629532 333.877533,134.378952 348.281677,120.078003 
	C348.505981,120.027634 348.951324,119.913513 348.962219,120.350433 
	C349.166351,122.589806 349.251740,124.411552 349.570221,126.191597 
	C351.722229,138.219269 353.923615,150.238113 356.099243,162.453125 
	C356.089447,162.646423 356.070862,163.033112 355.758972,163.158936 
	C339.289032,179.524704 323.130951,195.764648 306.724792,212.091095 
	C306.596558,212.540207 306.716400,212.902832 307.231689,213.403198 
	C325.404205,213.466599 343.181274,213.392242 361.209106,213.490295 
	C361.641327,213.753326 361.822784,213.843964 362.002747,214.406815 
	C362.333771,223.312241 363.081940,231.753448 362.919312,240.177078 
	C362.465424,263.685181 361.634247,287.185974 360.935242,310.802155 
	C360.918488,310.914642 361.021820,311.117218 360.588379,311.032593 
	C357.533630,310.947998 354.912292,310.947998 351.137421,310.947998 
	C354.758179,314.344635 357.346802,316.773010 359.944794,319.406586 
	C359.954163,319.611786 360.005005,320.019409 360.003174,320.448853 
	C359.299957,327.611481 358.824615,334.378021 357.837128,341.068939 
	C356.729889,348.571167 355.159424,356.005035 353.486664,363.305115 
	C337.397797,347.445190 321.612762,331.748749 305.720490,315.814819 
	C305.204010,315.736816 304.794800,315.896271 304.317383,316.516205 
	C304.239655,357.117798 304.211700,397.258972 304.229370,437.400116 
	C304.236847,454.385834 304.340363,471.371460 304.306732,488.610260 
	C304.131470,489.571411 304.049713,490.279449 303.685608,491.161682 
	C294.497955,499.794708 284.936249,507.189240 272.844971,510.641998 
	C271.760620,510.951630 270.942017,512.191956 270.000000,513.000000 
	C258.979095,513.000000 247.958206,513.000000 236.281219,512.610962 
	C226.218094,511.192322 216.811066,510.162659 206.968292,509.085266 
	C206.968292,459.527863 206.968292,410.492676 206.968292,361.457520 
	C206.537262,361.193542 206.106232,360.929565 205.675217,360.665588 
	C171.616074,394.727234 137.556931,428.788910 103.385872,462.962494 
	C94.663422,455.435455 85.972893,447.935944 76.490852,439.753418 
	C119.712486,396.525116 162.245972,353.985077 205.338058,310.886353 
	C138.572739,310.886353 72.497032,310.886353 5.982628,310.886353 
	C4.950101,303.941437 3.998017,297.348724 2.980717,290.766113 
	C2.373329,286.835907 1.663682,282.921509 1.000001,279.000000 
z"/>
<path fill="#FFFEFE" opacity="1.000000" stroke="none" 
	d="
M235.531342,0.999999 
	C231.581497,1.665879 227.164474,2.341866 222.744080,2.994992 
	C217.615479,3.752761 212.483917,4.490455 207.098541,5.273973 
	C207.098541,74.120636 207.098541,142.699142 207.098541,211.277771 
	C162.651093,166.838745 118.354614,122.550674 73.275253,77.479866 
	C64.887550,87.354782 57.314335,96.270805 49.551212,105.410400 
	C85.556885,141.389603 121.120705,176.927277 157.474670,213.254517 
	C105.905479,213.254517 55.303940,213.254517 4.225836,213.254517 
	C3.365619,220.741501 2.567062,227.691803 1.384253,234.821045 
	C1.000000,157.072800 1.000000,79.145592 1.000000,1.000000 
	C79.020760,1.000000 157.041718,1.000000 235.531342,0.999999 
M164.369766,111.130119 
	C170.932083,117.826942 177.494385,124.523773 184.870575,132.051147 
	C184.870575,90.770760 184.870575,51.013927 184.870575,10.790931 
	C155.552261,19.608530 128.647141,32.352058 104.387100,51.165977 
	C124.514008,71.286736 144.191803,90.958519 164.369766,111.130119 
M19.459827,160.028976 
	C15.878272,170.418610 12.296718,180.808228 8.632553,191.437500 
	C47.957607,191.437500 86.180923,191.437500 123.906929,191.437500 
	C97.691772,165.223389 71.377426,138.910095 44.955376,112.489098 
	C35.502285,127.074257 26.521063,142.585175 19.459827,160.028976 
z"/>
<path fill="#FFFFFF" opacity="1.000000" stroke="none" 
	d="
M1.000001,279.468658 
	C1.663682,282.921509 2.373329,286.835907 2.980717,290.766113 
	C3.998017,297.348724 4.950101,303.941437 5.982628,310.886353 
	C72.497032,310.886353 138.572739,310.886353 205.338058,310.886353 
	C162.245972,353.985077 119.712486,396.525116 76.490852,439.753418 
	C85.972893,447.935944 94.663422,455.435455 103.385872,462.962494 
	C137.556931,428.788910 171.616074,394.727234 205.675217,360.665588 
	C206.106232,360.929565 206.537262,361.193542 206.968292,361.457520 
	C206.968292,410.492676 206.968292,459.527863 206.968292,509.085266 
	C216.811066,510.162659 226.218094,511.192322 235.812561,512.610962 
	C157.739792,513.000000 79.479576,513.000000 1.000000,513.000000 
	C1.000000,435.312592 1.000000,357.624939 1.000001,279.468658 
M66.429962,391.929993 
	C85.858589,372.501312 105.287216,353.072601 125.148575,333.211182 
	C86.842339,333.211182 49.524288,333.211182 12.052482,333.211182 
	C20.687046,360.381226 32.932129,385.295868 50.412235,408.691681 
	C55.649376,403.203461 60.789680,397.816742 66.429962,391.929993 
M159.989471,417.489471 
	C143.391953,434.086853 126.794456,450.684235 110.182846,467.295685 
	C133.155090,483.259216 157.878708,495.138000 184.648621,502.910065 
	C184.648621,466.285370 184.648621,429.840363 184.648621,392.738190 
	C176.236145,401.182739 168.362808,409.086121 159.989471,417.489471 
z"/>
<path fill="#D71F28" opacity="1.000000" stroke="none" 
	d="
M360.951996,310.689667 
	C361.634247,287.185974 362.465424,263.685181 362.919312,240.177078 
	C363.081940,231.753448 362.333771,223.312241 362.456879,214.282974 
	C410.956512,213.664337 459.000488,213.639664 507.044495,213.634079 
	C508.027313,213.633957 509.010132,213.855576 509.996033,214.410461 
	C510.347900,218.536148 510.558044,222.245193 511.088226,225.907898 
	C511.531006,228.966751 512.348511,231.971359 513.000000,235.000000 
	C513.000000,249.354233 513.000000,263.708466 512.610596,278.714264 
	C510.776276,289.837524 509.331421,300.309174 507.427490,310.824036 
	C465.434326,310.879944 423.900238,310.903076 382.366119,310.895416 
	C375.228088,310.894104 368.090027,310.761597 360.951996,310.689667 
z"/>
<path fill="#FFFFFF" opacity="1.000000" stroke="none" 
	d="
M507.886566,310.780853 
	C509.331421,300.309174 510.776276,289.837524 512.610596,279.182922 
	C513.000000,356.927032 513.000000,434.854095 513.000000,513.000000 
	C435.312561,513.000000 357.624939,513.000000 279.649780,512.613098 
	C287.557037,511.140106 295.751801,510.053986 304.354004,508.971863 
	C311.908905,507.273010 319.056335,505.570221 326.579895,503.891663 
	C345.923645,497.943817 364.504364,491.004303 381.756470,480.981964 
	C388.699402,476.948547 395.315155,472.351929 402.415466,467.942719 
	C408.755463,463.480103 415.005249,459.377838 420.683105,454.596436 
	C424.885773,451.057343 428.344238,446.634460 432.468079,442.702881 
	C438.187592,437.634033 443.798706,432.677399 448.875183,427.223145 
	C451.966583,423.901672 454.233795,419.813110 457.214050,416.005737 
	C459.382843,413.715942 461.208771,411.489563 463.336365,409.074036 
	C468.546753,401.321350 473.545074,393.814240 478.345734,386.182770 
	C488.765198,369.619324 495.975098,351.611389 502.123657,332.723053 
	C504.150543,325.178345 506.018555,317.979614 507.886566,310.780853 
z"/>
<path fill="#FFFFFF" opacity="1.000000" stroke="none" 
	d="
M513.000000,234.531342 
	C512.348511,231.971359 511.531006,228.966751 511.088226,225.907898 
	C510.558044,222.245193 510.347900,218.536148 509.957825,214.019424 
	C508.218628,206.025696 506.520691,198.859711 504.868134,191.311432 
	C500.270996,173.619308 494.408844,156.759689 485.530396,141.124969 
	C479.579742,130.646042 473.200531,120.410492 466.850830,109.766716 
	C462.960449,104.389389 459.559937,99.023544 455.417969,94.309135 
	C450.665833,88.900291 445.256378,84.068954 440.124695,78.632645 
	C431.437561,70.205750 422.758209,62.132946 413.776367,53.880558 
	C411.603241,52.787971 409.732544,51.874969 407.914185,50.602226 
	C407.668640,49.688511 407.513367,48.927517 407.052551,48.610214 
	C382.158966,31.468971 355.546448,17.925699 325.807678,10.044962 
	C318.257568,8.320555 311.103790,6.676192 303.540405,5.005292 
	C299.483795,4.319152 295.844696,3.611540 292.187836,3.012317 
	C287.799805,2.293285 283.396606,1.666648 279.000000,1.000000 
	C356.927032,1.000000 434.854095,1.000000 513.000000,1.000000 
	C513.000000,78.687424 513.000000,156.375061 513.000000,234.531342 
z"/>
<path fill="#D32030" opacity="1.000000" stroke="none" 
	d="
M303.946594,508.967896 
	C295.751801,510.053986 287.557037,511.140106 279.181152,512.613098 
	C276.299988,513.000000 273.599976,513.000000 270.449982,513.000000 
	C270.942017,512.191956 271.760620,510.951630 272.844971,510.641998 
	C284.936249,507.189240 294.497955,499.794708 303.771484,491.624268 
	C304.075348,497.597748 304.010956,503.282806 303.946594,508.967896 
z"/>
<path fill="#D32030" opacity="1.000000" stroke="none" 
	d="
M278.550018,1.000000 
	C283.396606,1.666648 287.799805,2.293285 292.187836,3.012317 
	C295.844696,3.611540 299.483795,4.319152 303.635101,5.462646 
	C304.083405,11.634943 304.027374,17.323353 303.971344,23.011761 
	C294.486145,14.257900 284.436981,6.419625 271.666077,2.938393 
	C271.109894,2.786781 270.699219,2.101342 270.110382,1.332283 
	C272.700012,1.000000 275.400024,1.000000 278.550018,1.000000 
z"/>
<path fill="#E7E4E5" opacity="1.000000" stroke="none" 
	d="
M440.132477,78.986740 
	C445.256378,84.068954 450.665833,88.900291 455.417969,94.309135 
	C459.559937,99.023544 462.960449,104.389389 466.724487,110.074173 
	C440.047760,137.419205 413.335114,164.157440 385.825165,191.693741 
	C426.498688,191.693741 465.660736,191.693741 504.822784,191.693741 
	C506.520691,198.859711 508.218628,206.025696 509.954742,213.582703 
	C509.010132,213.855576 508.027313,213.633957 507.044495,213.634079 
	C459.000488,213.639664 410.956512,213.664337 362.458374,213.810745 
	C361.822784,213.843964 361.641327,213.753326 361.230774,213.068680 
	C360.667633,205.670761 360.639557,198.834610 359.926483,192.070679 
	C358.903198,182.363876 357.380432,172.709732 356.070862,163.033112 
	C356.070862,163.033112 356.089447,162.646423 356.402924,162.301010 
	C383.170746,135.504715 409.622070,109.050797 436.088745,82.612228 
	C437.367645,81.334663 438.781464,80.192146 440.132477,78.986740 
z"/>
<path fill="#FFFEFE" opacity="1.000000" stroke="none" 
	d="
M304.400208,488.357147 
	C304.340363,471.371460 304.236847,454.385834 304.229370,437.400116 
	C304.211700,397.258972 304.239655,357.117798 304.556213,316.560913 
	C305.188599,316.153961 305.510101,316.122986 305.827728,316.052307 
	C321.612762,331.748749 337.397797,347.445190 353.576965,363.516785 
	C354.215057,364.267395 354.459015,364.642883 354.517090,365.330994 
	C353.876740,367.562714 353.425262,369.482422 352.967285,371.400635 
	C349.940643,384.078064 346.912598,396.755157 343.575623,409.272980 
	C337.799805,403.738831 332.333344,398.364044 326.307281,392.439026 
	C326.307281,413.753845 326.307281,433.891388 326.230286,454.449188 
	C326.055908,456.574127 325.958557,458.278809 325.545715,460.092346 
	C324.142487,461.835449 323.005646,463.439392 321.975403,465.109100 
	C316.850586,473.414764 312.540497,482.332062 304.400208,488.357147 
z"/>
<path fill="#D7222A" opacity="1.000000" stroke="none" 
	d="
M354.702972,365.018341 
	C354.459015,364.642883 354.215057,364.267395 353.880798,363.680298 
	C355.159424,356.005035 356.729889,348.571167 357.837128,341.068939 
	C358.824615,334.378021 359.299957,327.611481 360.312500,320.572174 
	C391.354645,350.994720 422.083008,381.726074 452.825867,412.442932 
	C454.105011,413.721039 455.519684,414.863464 456.871216,416.069122 
	C454.233795,419.813110 451.966583,423.901672 448.875183,427.223145 
	C443.798706,432.677399 438.187592,437.634033 432.348877,442.401428 
	C423.109344,433.185730 414.348480,424.343384 405.530823,415.558014 
	C388.605194,398.694366 371.647430,381.863068 354.702972,365.018341 
z"/>
<path fill="#E5E5E5" opacity="1.000000" stroke="none" 
	d="
M457.214050,416.005737 
	C455.519684,414.863464 454.105011,413.721039 452.825867,412.442932 
	C422.083008,381.726074 391.354645,350.994720 360.314331,320.142700 
	C360.005005,320.019409 359.954163,319.611786 359.974609,318.993713 
	C360.337311,315.956146 360.679565,313.536682 361.021820,311.117218 
	C361.021820,311.117218 360.918488,310.914642 360.935242,310.802155 
	C368.090027,310.761597 375.228088,310.894104 382.366119,310.895416 
	C423.900238,310.903076 465.434326,310.879944 507.427490,310.824036 
	C506.018555,317.979614 504.150543,325.178345 501.664032,332.638489 
	C463.158081,332.899872 425.270630,332.899872 386.472168,332.899872 
	C387.621368,334.230988 388.085236,334.842438 388.622772,335.380219 
	C412.881165,359.648071 437.144623,383.910889 461.421295,408.160461 
	C461.874268,408.612946 462.493195,408.899323 463.034729,409.263184 
	C461.208771,411.489563 459.382843,413.715942 457.214050,416.005737 
z"/>
<path fill="#D71F28" opacity="1.000000" stroke="none" 
	d="
M440.124695,78.632645 
	C438.781464,80.192146 437.367645,81.334663 436.088745,82.612228 
	C409.622070,109.050797 383.170746,135.504715 356.412720,162.107697 
	C353.923615,150.238113 351.722229,138.219269 349.570221,126.191597 
	C349.251740,124.411552 349.166351,122.589806 349.086060,120.040054 
	C352.828705,115.654472 356.463867,112.021576 360.087280,108.377007 
	C378.086182,90.273071 396.081940,72.166054 414.078827,54.060139 
	C422.758209,62.132946 431.437561,70.205750 440.124695,78.632645 
z"/>
<path fill="#FFFFFF" opacity="1.000000" stroke="none" 
	d="
M304.452728,162.944305 
	C304.376160,155.285156 304.235687,147.626022 304.233734,139.966858 
	C304.224152,102.304207 304.251434,64.641548 304.643005,26.606606 
	C310.696808,33.849445 316.368500,41.468132 322.053436,49.076935 
	C323.298187,50.742912 324.590149,52.373631 325.938354,54.441147 
	C326.114594,56.565468 326.212860,58.269230 326.216125,60.435055 
	C326.121155,84.265480 326.121155,107.633842 326.121155,131.002213 
	C326.795166,131.464630 327.469177,131.927032 328.143219,132.389450 
	C334.035736,125.894806 339.928284,119.400154 346.070312,113.184860 
	C346.899048,115.685600 347.478241,117.906990 348.057404,120.128387 
	C333.877533,134.378952 319.697662,148.629532 305.076782,162.857834 
	C304.635773,162.835571 304.452728,162.944305 304.452728,162.944305 
z"/>
<path fill="#FFFDFD" opacity="1.000000" stroke="none" 
	d="
M355.758972,163.158936 
	C357.380432,172.709732 358.903198,182.363876 359.926483,192.070679 
	C360.639557,198.834610 360.667633,205.670761 360.980042,212.896271 
	C343.181274,213.392242 325.404205,213.466599 307.287781,213.090256 
	C306.956604,212.427902 306.964722,212.216263 306.972870,212.004608 
	C323.130951,195.764648 339.289032,179.524704 355.758972,163.158936 
z"/>
<path fill="#EADCDE" opacity="1.000000" stroke="none" 
	d="
M304.306732,488.610260 
	C312.540497,482.332062 316.850586,473.414764 321.975403,465.109100 
	C323.005646,463.439392 324.142487,461.835449 325.654694,460.550537 
	C326.120728,475.222351 326.162262,489.544891 326.203796,503.867432 
	C319.056335,505.570221 311.908905,507.273010 304.354004,508.971863 
	C304.010956,503.282806 304.075348,497.597748 304.053833,491.450073 
	C304.049713,490.279449 304.131470,489.571411 304.306732,488.610260 
z"/>
<path fill="#EADEDF" opacity="1.000000" stroke="none" 
	d="
M325.860382,54.020584 
	C324.590149,52.373631 323.298187,50.742912 322.053436,49.076935 
	C316.368500,41.468132 310.696808,33.849445 304.713013,26.146622 
	C304.325897,25.293184 304.246124,24.527439 304.068848,23.386726 
	C304.027374,17.323353 304.083405,11.634943 304.044739,5.489182 
	C311.103790,6.676192 318.257568,8.320555 325.777832,10.504340 
	C326.049683,25.369368 325.955048,39.694973 325.860382,54.020584 
z"/>
<path fill="#E7E5E5" opacity="1.000000" stroke="none" 
	d="
M348.281677,120.078011 
	C347.478241,117.906990 346.899048,115.685600 346.177795,112.920082 
	C346.362610,111.922264 346.689514,111.468567 347.320129,110.875900 
	C357.988129,100.375397 368.323517,89.984741 378.725159,79.660858 
	C388.400726,70.057602 398.146820,60.525440 407.861847,50.961971 
	C409.732544,51.874969 411.603241,52.787971 413.776367,53.880554 
	C396.081940,72.166054 378.086182,90.273071 360.087280,108.377007 
	C356.463867,112.021576 352.828705,115.654472 349.075134,119.603142 
	C348.951324,119.913513 348.505981,120.027634 348.281677,120.078011 
z"/>
<path fill="#FEFEFE" opacity="1.000000" stroke="none" 
	d="
M360.588379,311.032593 
	C360.679565,313.536682 360.337311,315.956146 359.965240,318.788513 
	C357.346802,316.773010 354.758179,314.344635 351.137421,310.947998 
	C354.912292,310.947998 357.533630,310.947998 360.588379,311.032593 
z"/>
<path fill="#EADCDE" opacity="1.000000" stroke="none" 
	d="
M305.720490,315.814819 
	C305.510101,316.122986 305.188599,316.153961 304.624420,316.100464 
	C304.794800,315.896271 305.204010,315.736816 305.720490,315.814819 
z"/>
<path fill="#E7E4E5" opacity="1.000000" stroke="none" 
	d="
M306.724792,212.091095 
	C306.964722,212.216263 306.956604,212.427902 306.892334,212.952515 
	C306.716400,212.902832 306.596558,212.540207 306.724792,212.091095 
z"/>
<path fill="#EADEDF" opacity="1.000000" stroke="none" 
	d="
M304.387207,163.113464 
	C304.452728,162.944305 304.635773,162.835571 304.731201,162.882080 
	C304.658356,163.046600 304.490051,163.164627 304.387207,163.113464 
z"/>
<path fill="#29337A" opacity="1.000000" stroke="none" 
	d="
M164.119675,110.880203 
	C144.191803,90.958519 124.514008,71.286736 104.387100,51.165977 
	C128.647141,32.352058 155.552261,19.608530 184.870575,10.790931 
	C184.870575,51.013927 184.870575,90.770760 184.870575,132.051147 
	C177.494385,124.523773 170.932083,117.826942 164.119675,110.880203 
z"/>
<path fill="#2C367C" opacity="1.000000" stroke="none" 
	d="
M19.696796,159.710770 
	C26.521063,142.585175 35.502285,127.074257 44.955376,112.489098 
	C71.377426,138.910095 97.691772,165.223389 123.906929,191.437500 
	C86.180923,191.437500 47.957607,191.437500 8.632553,191.437500 
	C12.296718,180.808228 15.878272,170.418610 19.696796,159.710770 
z"/>
<path fill="#2A347A" opacity="1.000000" stroke="none" 
	d="
M66.179977,392.179993 
	C60.789680,397.816742 55.649376,403.203461 50.412235,408.691681 
	C32.932129,385.295868 20.687046,360.381226 12.052482,333.211182 
	C49.524288,333.211182 86.842339,333.211182 125.148575,333.211182 
	C105.287216,353.072601 85.858589,372.501312 66.179977,392.179993 
z"/>
<path fill="#29337A" opacity="1.000000" stroke="none" 
	d="
M160.239471,417.239471 
	C168.362808,409.086121 176.236145,401.182739 184.648621,392.738190 
	C184.648621,429.840363 184.648621,466.285370 184.648621,502.910065 
	C157.878708,495.138000 133.155090,483.259216 110.182846,467.295685 
	C126.794456,450.684235 143.391953,434.086853 160.239471,417.239471 
z"/>
<path fill="#252F6C" opacity="1.000000" stroke="none" 
	d="
M463.336365,409.074005 
	C462.493195,408.899323 461.874268,408.612946 461.421295,408.160461 
	C437.144623,383.910889 412.881165,359.648071 388.622772,335.380219 
	C388.085236,334.842438 387.621368,334.230988 386.472168,332.899872 
	C425.270630,332.899872 463.158081,332.899872 501.505188,332.984436 
	C495.975098,351.611389 488.765198,369.619324 478.345734,386.182770 
	C473.545074,393.814240 468.546753,401.321350 463.336365,409.074005 
z"/>
<path fill="#26306D" opacity="1.000000" stroke="none" 
	d="
M326.579895,503.891663 
	C326.162262,489.544891 326.120728,475.222351 325.970215,460.441650 
	C325.958557,458.278809 326.055908,456.574127 326.535980,454.330017 
	C328.040344,451.973755 329.489532,450.280548 330.229401,448.319672 
	C334.395020,437.279449 338.360840,426.164001 342.478729,415.105469 
	C343.016022,413.662537 344.036407,412.399536 345.128754,411.216003 
	C364.309631,430.256409 383.194733,449.134033 402.079834,468.011688 
	C395.315155,472.351929 388.699402,476.948547 381.756470,480.981964 
	C364.504364,491.004303 345.923645,497.943817 326.579895,503.891663 
z"/>
<path fill="#E7E7E7" opacity="1.000000" stroke="none" 
	d="
M402.415466,467.942719 
	C383.194733,449.134033 364.309631,430.256409 345.055969,410.987610 
	C344.419952,410.208374 344.152496,409.820343 343.885010,409.432343 
	C346.912598,396.755157 349.940643,384.078064 352.967285,371.400635 
	C353.425262,369.482422 353.876740,367.562714 354.517090,365.330994 
	C371.647430,381.863068 388.605194,398.694366 405.530823,415.558014 
	C414.348480,424.343384 423.109344,433.185730 432.015045,442.303833 
	C428.344238,446.634460 424.885773,451.057343 420.683105,454.596436 
	C415.005249,459.377838 408.755463,463.480103 402.415466,467.942719 
z"/>
<path fill="#27316D" opacity="1.000000" stroke="none" 
	d="
M504.868134,191.311432 
	C465.660736,191.693741 426.498688,191.693741 385.825165,191.693741 
	C413.335114,164.157440 440.047760,137.419205 466.886749,110.373505 
	C473.200531,120.410492 479.579742,130.646042 485.530396,141.124969 
	C494.408844,156.759689 500.270996,173.619308 504.868134,191.311432 
z"/>
<path fill="#252F6C" opacity="1.000000" stroke="none" 
	d="
M407.914185,50.602226 
	C398.146820,60.525440 388.400726,70.057602 378.725159,79.660858 
	C368.323517,89.984741 357.988129,100.375397 347.023041,110.670380 
	C345.949799,109.759720 345.338409,108.963898 345.025726,108.064270 
	C340.254303,94.335388 335.614380,80.559685 330.696411,66.883850 
	C329.795471,64.378563 327.800873,62.266541 326.311127,59.972988 
	C326.212860,58.269230 326.114594,56.565468 325.938354,54.441143 
	C325.955048,39.694973 326.049683,25.369368 326.174164,10.584384 
	C355.546448,17.925699 382.158966,31.468971 407.052551,48.610214 
	C407.513367,48.927517 407.668640,49.688511 407.914185,50.602226 
z"/>
<path fill="#313A7E" opacity="1.000000" stroke="none" 
	d="
M343.575653,409.272980 
	C344.152496,409.820343 344.419952,410.208374 344.760193,410.824829 
	C344.036407,412.399536 343.016022,413.662537 342.478729,415.105469 
	C338.360840,426.164001 334.395020,437.279449 330.229401,448.319672 
	C329.489532,450.280548 328.040344,451.973755 326.612976,453.909729 
	C326.307281,433.891388 326.307281,413.753845 326.307281,392.439026 
	C332.333344,398.364044 337.799805,403.738831 343.575653,409.272980 
z"/>
<path fill="#2F397D" opacity="1.000000" stroke="none" 
	d="
M326.216125,60.435055 
	C327.800873,62.266541 329.795471,64.378563 330.696411,66.883850 
	C335.614380,80.559685 340.254303,94.335388 345.025726,108.064270 
	C345.338409,108.963898 345.949799,109.759720 346.719360,110.809349 
	C346.689514,111.468567 346.362610,111.922264 345.928253,112.640732 
	C339.928284,119.400154 334.035736,125.894806 328.143219,132.389450 
	C327.469177,131.927032 326.795166,131.464630 326.121155,131.002213 
	C326.121155,107.633842 326.121155,84.265480 326.216125,60.435055 
z"/>
</svg>