<svg width="18" height="19" viewBox="0 0 18 19" fill="none" xmlns="http://www.w3.org/2000/svg">
<path fill-rule="evenodd" clip-rule="evenodd" d="M8.99919 0.800049C4.19561 0.800049 0.299988 4.69516 0.299988 9.50034C0.299988 13.3436 2.79257 16.6047 6.24971 17.7557C6.68499 17.8353 6.84361 17.5666 6.84361 17.3359C6.84361 17.1292 6.83614 16.5823 6.83187 15.8565C4.41192 16.382 3.90133 14.69 3.90133 14.69C3.50558 13.6849 2.93517 13.4173 2.93517 13.4173C2.14526 12.8779 2.99499 12.8886 2.99499 12.8886C3.86822 12.95 4.32753 13.7853 4.32753 13.7853C5.10356 15.1147 6.36401 14.7306 6.85964 14.5079C6.93868 13.9461 7.16353 13.5626 7.41188 13.3452C5.48009 13.1252 3.44897 12.3791 3.44897 9.04529C3.44897 8.09515 3.78811 7.31913 4.34463 6.7108C4.2549 6.49076 3.95635 5.6063 4.43008 4.40834C4.43008 4.40834 5.16017 4.17441 6.82225 5.29973C7.51603 5.10692 8.26055 5.01079 9.00026 5.00705C9.73943 5.01079 10.4834 5.10692 11.1783 5.29973C12.8393 4.17441 13.5683 4.40834 13.5683 4.40834C14.0431 5.6063 13.7445 6.49076 13.6554 6.7108C14.2129 7.31913 14.5494 8.09515 14.5494 9.04529C14.5494 12.3876 12.5151 13.123 10.5774 13.3383C10.8893 13.6069 11.1676 14.1378 11.1676 14.9496C11.1676 16.1123 11.1569 17.0507 11.1569 17.3359C11.1569 17.5688 11.3139 17.8396 11.7551 17.7546C15.2095 16.6015 17.7 13.3431 17.7 9.50034C17.7 4.69516 13.8044 0.800049 8.99919 0.800049Z" fill="white"/>
</svg>
