<svg width="18" height="19" viewBox="0 0 18 19" fill="none" xmlns="http://www.w3.org/2000/svg">
<path fill-rule="evenodd" clip-rule="evenodd" d="M15.4909 15.9908C15.8838 15.598 16.1901 15.1274 16.3905 14.6092C16.5834 14.1131 16.7152 13.5461 16.7532 12.7158C16.7911 11.8839 16.8001 11.6183 16.8001 9.49996C16.8001 7.38163 16.7911 7.11589 16.7532 6.28405C16.7152 5.4538 16.5834 4.88683 16.3905 4.39069C16.1947 3.87024 15.8877 3.39876 15.4909 3.00915C15.1012 2.61229 14.6298 2.3052 14.1093 2.10931C13.6131 1.91662 13.0461 1.78479 12.2158 1.74704C11.3841 1.70893 11.1184 1.69995 9.00002 1.69995C6.88166 1.69995 6.61595 1.70893 5.78412 1.7469C4.95386 1.78479 4.38689 1.91662 3.89075 2.10945C3.3703 2.30532 2.89883 2.61234 2.50921 3.00913C2.11234 3.39871 1.80523 3.87018 1.60931 4.39065C1.41662 4.88683 1.28479 5.4538 1.24704 6.28405C1.20893 7.11589 1.19995 7.3816 1.19995 9.49996C1.19995 11.6183 1.20893 11.8841 1.24704 12.7158C1.28495 13.5461 1.41678 14.1131 1.60961 14.6092C1.80547 15.1298 2.11249 15.6011 2.50928 15.9908C2.89889 16.3876 3.37036 16.6946 3.89081 16.8904C4.38698 17.0832 4.95396 17.2151 5.78418 17.253C6.61613 17.291 6.88175 17.3 9.0001 17.3C11.1184 17.3 11.3842 17.291 12.216 17.253C13.0462 17.2151 13.6132 17.0832 14.1093 16.8904C14.6275 16.69 15.0981 16.3836 15.4909 15.9908ZM2.39934 8.5819C2.39964 8.83424 2.40001 9.13447 2.40001 9.49998C2.40001 9.86548 2.39964 10.1657 2.39934 10.418C2.39814 11.4031 2.39784 11.6582 2.42351 12.2186C2.45545 12.921 2.49383 13.4373 2.61101 13.8263C2.72366 14.2004 2.85001 14.581 3.26251 15.0405C3.67501 15.4998 4.07288 15.7079 4.57969 15.8608C5.0865 16.0136 5.72347 16.0464 6.27658 16.0716C6.90393 16.1003 7.15258 16.1002 8.46852 16.0998H9.00002C9.3516 16.0998 9.64278 16.1001 9.88903 16.1004C10.8983 16.1015 11.1531 16.1018 11.7189 16.0758C12.4214 16.0439 12.9376 16.0055 13.3267 15.8884C13.7007 15.7757 14.0814 15.6494 14.5407 15.2368C15.0001 14.8244 15.2082 14.4264 15.361 13.9197C15.5139 13.4128 15.5468 12.7758 15.572 12.2228C15.6006 11.5962 15.6004 11.3483 15.6002 10.0369V10.0368L15.6001 9.50042V8.96892C15.6004 7.65297 15.6006 7.40433 15.5719 6.77697C15.5467 6.22387 15.5138 5.5869 15.361 5.08009C15.2082 4.57329 15.0001 4.17541 14.5407 3.76291C14.0814 3.35041 13.7006 3.22406 13.3267 3.1114C12.9375 2.99422 12.4213 2.95585 11.7188 2.9239C11.153 2.89798 10.8983 2.89826 9.88906 2.89936C9.64279 2.89964 9.35161 2.89996 9.00002 2.89996L8.4684 2.89987C7.15256 2.89952 6.90392 2.89945 6.27658 2.92807C5.72347 2.9533 5.0865 2.98615 4.57969 3.139C4.07288 3.29186 3.67501 3.49994 3.26251 3.95932C2.85001 4.4187 2.72366 4.79938 2.61101 5.17339C2.49383 5.56244 2.45545 6.07868 2.42351 6.7812C2.39784 7.34152 2.39814 7.59676 2.39934 8.5819ZM8.9999 6.80013C7.50884 6.80013 6.3001 8.00888 6.3001 9.49994C6.3001 10.991 7.50884 12.1997 8.9999 12.1997C10.491 12.1997 11.6997 10.991 11.6997 9.49994C11.6997 8.00888 10.491 6.80013 8.9999 6.80013ZM5.1001 9.49994C5.1001 7.34613 6.8461 5.60013 8.9999 5.60013C11.1537 5.60013 12.8997 7.34613 12.8997 9.49994C12.8997 11.6537 11.1537 13.3997 8.9999 13.3997C6.8461 13.3997 5.1001 11.6537 5.1001 9.49994ZM13.1636 6.23631C13.6606 6.23631 14.0636 5.83338 14.0636 5.33631C14.0636 4.83926 13.6606 4.43631 13.1636 4.43631C12.6666 4.43631 12.2636 4.83926 12.2636 5.33631C12.2636 5.83338 12.6666 6.23631 13.1636 6.23631Z" fill="white"/>
</svg>
