<svg width="18" height="19" viewBox="0 0 18 19" fill="none" xmlns="http://www.w3.org/2000/svg">
<path fill-rule="evenodd" clip-rule="evenodd" d="M8.78009 6.13557C8.78009 4.11782 10.4153 2.4823 12.432 2.4823C13.6792 2.4823 14.665 3.10693 15.2983 3.99713L15.22 3.80274C15.938 3.662 16.6126 3.39945 17.2216 3.03811C16.9861 3.77432 16.4867 4.3928 15.8358 4.78256C16.4739 4.70609 17.0808 4.53693 17.6459 4.28656L17.6445 4.28859C17.2229 4.91992 16.6884 5.47411 16.0726 5.91936L16.0441 5.84851C16.0776 6.06512 16.0947 6.28357 16.0947 6.50097C16.0947 10.8815 12.7581 15.9695 6.62553 15.9695C4.74676 15.9695 2.99706 15.4191 1.52412 14.4741C1.2917 14.3249 1.22418 14.0157 1.3733 13.7832C1.37935 13.7738 1.38566 13.7647 1.39221 13.7558C1.47024 13.5805 1.65548 13.4685 1.85601 13.4921C3.04012 13.6316 4.22734 13.4692 5.25687 12.9704C4.2292 12.5859 3.42445 11.7452 3.08821 10.6962C3.03976 10.5451 3.07452 10.3796 3.17969 10.2607C3.20492 10.2322 3.23332 10.2074 3.26406 10.1865C2.4683 9.52567 1.96174 8.52891 1.96174 7.41372V7.37313C1.96174 7.21367 2.04612 7.06612 2.18356 6.98527C2.26763 6.9358 2.36388 6.91582 2.45786 6.92549C2.15859 6.39977 1.98745 5.7913 1.98745 5.14351C1.98745 4.57949 1.99244 3.8971 2.37253 3.28443C2.45691 3.14841 2.60202 3.07304 2.75105 3.07161C2.93089 3.03009 3.12691 3.09013 3.25143 3.24283C4.60014 4.89673 6.55798 6.03052 8.78383 6.30169C8.78135 6.24664 8.78009 6.19126 8.78009 6.13557ZM6.62553 14.9695C5.53699 14.9695 4.49765 14.7632 3.54238 14.3881C4.69085 14.2509 5.80015 13.8373 6.73917 13.1014C6.88909 12.9839 6.9488 12.7847 6.88824 12.6041C6.82768 12.4236 6.65998 12.3006 6.46953 12.2973C5.53892 12.2809 4.72195 11.7928 4.24872 11.0618C4.52677 11.0513 4.79757 11.0095 5.05791 10.9391C5.25949 10.8846 5.39708 10.6986 5.3902 10.4899C5.38331 10.2812 5.23375 10.1046 5.02901 10.0635C4.00925 9.85882 3.19743 9.07964 2.94416 8.07865C3.22526 8.15962 3.52039 8.20742 3.82479 8.21738C4.0256 8.22395 4.20643 8.09661 4.26792 7.90533C4.3294 7.71405 4.25663 7.50519 4.0896 7.39352C3.36434 6.90866 2.88745 6.08082 2.88745 5.14351C2.88745 4.85691 2.89284 4.60807 2.92453 4.38592C4.54779 6.10942 6.81024 7.22502 9.33615 7.3522C9.49252 7.36007 9.64354 7.29425 9.74422 7.17434C9.84489 7.05444 9.88359 6.8943 9.84877 6.74165C9.80402 6.54542 9.78009 6.34316 9.78009 6.13557C9.78009 4.66983 10.9679 3.4823 12.432 3.4823C13.9841 3.4823 15.0947 4.91635 15.0947 6.50097C15.0947 10.4515 12.091 14.9695 6.62553 14.9695Z" fill="white"/>
</svg>
